<?xml version="1.0" encoding="UTF-8" standalone="no"?>
<!-- Created with Inkscape (http://www.inkscape.org/) -->

<svg
   width="51.795525mm"
   height="53.764393mm"
   viewBox="0 0 51.795525 53.764391"
   version="1.1"
   id="svg5"
   inkscape:version="1.2 (dc2aeda, 2022-05-15)"
   sodipodi:docname="pcb.svg"
   xmlns:inkscape="http://www.inkscape.org/namespaces/inkscape"
   xmlns:sodipodi="http://sodipodi.sourceforge.net/DTD/sodipodi-0.dtd"
   xmlns="http://www.w3.org/2000/svg"
   xmlns:svg="http://www.w3.org/2000/svg">
  <sodipodi:namedview
     id="namedview7"
     pagecolor="#ffffff"
     bordercolor="#666666"
     borderopacity="1.0"
     inkscape:pageshadow="2"
     inkscape:pageopacity="0.0"
     inkscape:pagecheckerboard="0"
     inkscape:document-units="mm"
     showgrid="false"
     inkscape:zoom="2.9246746"
     inkscape:cx="95.908106"
     inkscape:cy="126.33884"
     inkscape:window-width="1332"
     inkscape:window-height="847"
     inkscape:window-x="83"
     inkscape:window-y="25"
     inkscape:window-maximized="0"
     inkscape:current-layer="layer1"
     fit-margin-top="0"
     fit-margin-left="0"
     fit-margin-right="0"
     fit-margin-bottom="0"
     inkscape:showpageshadow="2"
     inkscape:deskcolor="#d1d1d1" />
  <defs
     id="defs2">
    <inkscape:path-effect
       effect="fillet_chamfer"
       id="path-effect1315"
       is_visible="true"
       lpeversion="1"
       nodesatellites_param="F,0,0,1,0,1,0,1 @ F,0,0,1,0,1,0,1 @ F,0,0,1,0,1,0,1 @ F,0,0,1,0,1,0,1 @ F,0,0,1,0,1,0,1 @ F,0,0,1,0,1,0,1 @ F,0,0,1,0,1,0,1 @ F,0,0,1,0,1,0,1 @ F,0,0,1,0,1,0,1"
       unit="mm"
       method="auto"
       mode="F"
       radius="1"
       chamfer_steps="1"
       flexible="false"
       use_knot_distance="true"
       apply_no_radius="true"
       apply_with_radius="true"
       only_selected="false"
       hide_knots="false" />
  </defs>
  <g
     inkscape:label="圖層 1"
     inkscape:groupmode="layer"
     id="layer1"
     transform="translate(-26.126585,-145.44256)">
    <path
       id="circle8003"
       style="fill:none;fill-opacity:1;stroke:#000000;stroke-width:0.1;stroke-linecap:round;stroke-linejoin:round;stroke-dasharray:none;stroke-opacity:1"
       d="m 51.024506,145.50832 c -13.482145,0.51272 -24.319694,11.35027 -24.832403,24.83242 -0.02099,0.55184 -0.02068,1.44765 0.0011,1.99948 0.198553,5.03883 1.867009,9.91042 4.799222,14.01304 0.321118,0.44929 1.04477,0.80212 1.597055,0.80212 l 12.401183,0 a 1,1 45 0 1 1,1 l 0,10.00157 a 1,1 45 0 0 1,1 h 10.059443 a 1,1 135 0 0 1,-1 v -10.00157 a 1,1 135 0 1 1,-1 l 12.409179,0 c 0.552285,0 1.275937,-0.35283 1.597055,-0.80212 2.93221,-4.10261 4.600645,-8.97421 4.799216,-14.01304 0.02175,-0.55183 0.02206,-1.44765 0.0011,-1.9995 -0.512723,-13.48221 -11.350374,-24.31979 -24.832588,-24.83241 -0.551841,-0.021 -1.447646,-0.021 -1.999499,1e-5 z"
       inkscape:export-filename="./circle8003.svg"
       inkscape:export-xdpi="150"
       inkscape:export-ydpi="150"
       sodipodi:nodetypes="cccccccccc"
       inkscape:path-effect="#path-effect1315"
       inkscape:original-d="m 52.024266,145.48934 c -14.277171,5e-5 -25.851096,11.57397 -25.851142,25.85114 0.0041,5.72601 1.909218,11.2886 5.416323,15.8149 H 45.99063 v 12.00157 h 12.059443 v -12.00157 h 14.409179 c 3.507105,-4.5263 5.412195,-10.08889 5.416321,-15.8149 -4.7e-5,-14.27724 -11.574072,-25.85119 -25.851307,-25.85114 z" />
  </g>
</svg>
