<?xml version="1.0" encoding="UTF-8" standalone="no"?>
<!-- Created with Inkscape (http://www.inkscape.org/) -->

<svg
   width="50.884361mm"
   height="38.969418mm"
   viewBox="0 0 50.884362 38.969417"
   version="1.1"
   id="svg5"
   inkscape:version="1.2 (dc2aeda, 2022-05-15)"
   sodipodi:docname="pcb.svg"
   xmlns:inkscape="http://www.inkscape.org/namespaces/inkscape"
   xmlns:sodipodi="http://sodipodi.sourceforge.net/DTD/sodipodi-0.dtd"
   xmlns="http://www.w3.org/2000/svg"
   xmlns:svg="http://www.w3.org/2000/svg">
  <sodipodi:namedview
     id="namedview7"
     pagecolor="#ffffff"
     bordercolor="#666666"
     borderopacity="1.0"
     inkscape:pageshadow="2"
     inkscape:pageopacity="0.0"
     inkscape:pagecheckerboard="0"
     inkscape:document-units="mm"
     showgrid="false"
     inkscape:zoom="4.1829204"
     inkscape:cx="103.63573"
     inkscape:cy="174.87782"
     inkscape:window-width="1332"
     inkscape:window-height="847"
     inkscape:window-x="83"
     inkscape:window-y="25"
     inkscape:window-maximized="0"
     inkscape:current-layer="g802"
     fit-margin-top="0"
     fit-margin-left="0"
     fit-margin-right="0"
     fit-margin-bottom="0"
     inkscape:showpageshadow="2"
     inkscape:deskcolor="#d1d1d1" />
  <defs
     id="defs2" />
  <g
     inkscape:label="圖層 1"
     inkscape:groupmode="layer"
     id="layer1"
     transform="translate(-26.178833,-148.03606)">
    <g
       id="g802"
       transform="matrix(0.31567102,0,0,0.31567102,17.897634,134.68005)">
      <path
         id="path3626"
         style="fill:none;fill-opacity:1;stroke:#f9ea5b;stroke-width:2.56017;stroke-linecap:round;stroke-linejoin:round;stroke-miterlimit:4;stroke-dasharray:none;stroke-opacity:1"
         d="m 106.40137,43.589993 c -8.915956,6e-5 -16.143668,7.22802 -16.14343,16.14398 0.0042,7.87443 5.688994,14.59692 13.45331,15.90915 v 8.89942 c 0,0.14873 0.004,0.29544 0.0127,0.44046 -26.527823,1.4228 -47.311538,23.342237 -47.322274,49.908237 0.01274,0.66269 0.03865,1.32505 0.07772,1.98671 0,0 9.073205,3.76685 35.599738,3.55632 26.526536,-0.21054 64.244776,-3.55632 64.244776,-3.55632 0.0391,-0.66166 0.065,-1.32402 0.0778,-1.98671 -0.0107,-26.566 -20.79445,-48.485427 -47.32227,-49.908237 0.009,-0.14502 0.0127,-0.29173 0.0127,-0.44046 v -8.89942 c 7.76432,-1.31223 13.44908,-8.03472 13.45331,-15.90915 2.4e-4,-8.91617 -7.22781,-16.14422 -16.14398,-16.14398 z"
         sodipodi:nodetypes="sccsccczcccsccss" />
      <circle
         style="fill:#ffcf13;fill-opacity:1;stroke:none;stroke-width:0.312699;stroke-linecap:round;stroke-linejoin:round;stroke-miterlimit:4;stroke-dasharray:none;stroke-opacity:1"
         id="path16065"
         cx="110.07307"
         cy="56.320995"
         r="10.814466" />
      <path
         id="path13708"
         style="fill:#ffcf13;fill-opacity:1;stroke:none;stroke-width:0.264999;stroke-linecap:round;stroke-linejoin:round;stroke-miterlimit:4;stroke-dasharray:none;stroke-opacity:1"
         d="m 158.61005,58.049063 a 21.455624,21.455624 0 0 0 -4.34909,0.67128 l 6.4208,9.56272 a 11.251119,11.251119 0 0 1 8.31887,4.87825 11.251119,11.251119 0 0 1 -3.06751,15.61352 11.251119,11.251119 0 0 1 -15.61352,-3.06854 11.251119,11.251119 0 0 1 -1.36684,-9.54671 l -6.42183,-9.56272 a 21.455624,21.455624 0 0 0 -0.68264,24.79797 21.455624,21.455624 0 0 0 29.77389,5.85132 21.455624,21.455624 0 0 0 9.47229,-18.15135 81.892912,81.892912 0 0 0 -13.79192,-19.49906 21.455624,21.455624 0 0 0 -8.6925,-1.54668 z M 44.927071,68.396753 a 21.455624,21.455624 0 0 0 -3.643704,0.47077 81.892912,81.892912 0 0 0 -13.737664,32.865697 21.455624,21.455624 0 0 0 8.934857,7.6357 21.455624,21.455624 0 0 0 28.369327,-10.766267 21.455624,21.455624 0 0 0 -4.835879,-24.33132 l -4.725295,10.50478 a 11.25112,11.25112 0 0 1 0.254764,9.64075 11.25112,11.25112 0 0 1 -14.87661,5.645647 11.25112,11.25112 0 0 1 -5.645134,-14.877117 11.25112,11.25112 0 0 1 7.38198,-6.20479 l 4.725292,-10.50479 a 21.455624,21.455624 0 0 0 -2.201934,-0.0791 z m 135.750369,28.52177 -22.39967,8.802047 2.87321,7.31221 22.40019,-8.80153 z m 4.03438,12.089697 -23.24664,6.23373 2.03553,7.58871 23.24613,-6.23375 z m -157.213141,1.55753 -1.265039,6.05906 a 81.892912,81.892912 0 0 0 0.06408,1.71669 l 23.155174,4.83229 1.605071,-7.69051 z m 159.477081,12.27628 -24.02799,1.3715 0.44804,7.84398 24.02799,-1.37149 z m -160.410875,0.41444 a 81.892912,81.892912 0 0 0 1.124479,7.99592 l 21.091736,1.97456 0.732772,-7.82227 z m 136.796295,11.19934 -0.0574,7.85689 22.26841,0.16123 a 81.892912,81.892912 0 0 0 1.84382,-6.19446 l 0.0119,-1.64951 z m -113.802866,0.0419 -20.618378,2.31097 a 81.892912,81.892912 0 0 0 2.380731,7.63985 l 19.113045,-2.14303 z m 1.312066,10.16631 -18.162717,3.22822 a 81.892912,81.892912 0 0 0 3.52175,7.35408 l 16.016075,-2.84634 z m 112.16111,0.63097 -0.51883,7.83983 17.95136,1.18804 a 81.892912,81.892912 0 0 0 3.5605,-7.63881 z m -110.017056,9.99887 -14.700912,3.51555 a 81.892912,81.892912 0 0 0 4.719093,6.94996 l 11.809097,-2.82411 z m 109.242426,0.30748 -0.51883,7.83931 12.51603,0.82838 a 81.892912,81.892912 0 0 0 4.92786,-7.54786 z" />
      <path
         style="fill:#ffcf13;fill-opacity:1;stroke:none;stroke-width:0.264583px;stroke-linecap:butt;stroke-linejoin:miter;stroke-opacity:1"
         d="m 61.513578,52.103433 -3.685398,13.61303 9.0667,0.20375 -0.905864,12.60827 9.946591,-19.16411 -10.416017,0.47741 z"
         id="path14242"
         sodipodi:nodetypes="ccccccc" />
      <g
         aria-label="I Can Solder"
         transform="matrix(0.8789953,0,0,1.1376625,66.795437,256.5552)"
         id="text6218"
         style="font-size:16.1785px;line-height:1.25;fill:#ffcf13;stroke-width:0.404462">
        <path
           d="m -10.629445,-97.097131 c 0.09707,0.711854 0.129428,1.18103 0.129428,2.394418 v 8.671676 c 0,1.083959 -0.03236,1.763456 -0.129428,2.394417 h 3.5592697 c -0.097071,-0.679497 -0.129428,-1.278101 -0.129428,-2.394417 v -8.671676 c 0,-1.181031 0.032357,-1.731099 0.129428,-2.394418 z"
           style="font-family:'Hiragino Kaku Gothic StdN';-inkscape-font-specification:'Hiragino Kaku Gothic StdN'"
           id="path1088" />
        <path
           d="m 12.30737,-93.052506 c -0.210321,-0.954532 -0.485355,-1.553136 -1.003067,-2.216455 -1.051603,-1.407529 -2.685631,-2.119383 -4.7726574,-2.119383 -1.8928845,0 -3.5269129,0.598605 -4.6432293,1.682564 -1.27810146,1.261923 -1.95759843,3.12245 -1.95759843,5.322726 0,2.167919 0.67949697,4.060804 1.87670593,5.274191 1.1486734,1.164852 2.8150588,1.779635 4.7888358,1.779635 1.9575984,0 3.5269124,-0.614783 4.5299794,-1.763457 0.679497,-0.792746 1.035424,-1.585492 1.342816,-2.960665 l -3.3651281,-0.501533 c -0.097071,0.679497 -0.2103205,1.003067 -0.4853549,1.391351 -0.4691765,0.64714 -1.229566,1.019245 -2.1193834,1.019245 -2.0061339,0 -3.2033429,-1.601671 -3.2033429,-4.238767 0,-2.669452 1.1486735,-4.222588 3.1224504,-4.222588 1.3913509,0 2.2488114,0.728032 2.5562028,2.200276 z"
           style="font-family:'Hiragino Kaku Gothic StdN';-inkscape-font-specification:'Hiragino Kaku Gothic StdN'"
           id="path1090" />
        <path
           d="m 20.359459,-90.027127 c -1.164852,0.03236 -1.650207,0.04854 -2.281168,0.11325 -1.456065,0.129428 -2.540025,0.469176 -3.365128,1.051602 -0.776568,0.533891 -1.181031,1.342816 -1.181031,2.362061 0,0.889817 0.307392,1.666385 0.889818,2.200276 0.64714,0.598604 1.569314,0.889817 2.79888,0.889817 1.326637,0 2.232633,-0.275034 3.138629,-0.97071 v 0.744211 h 3.138629 c -0.08089,-0.728032 -0.113249,-1.310458 -0.113249,-2.297346 v -4.368195 c 0,-1.456065 -0.452998,-2.345883 -1.488422,-2.91213 -0.630962,-0.339749 -1.795814,-0.566248 -2.993023,-0.566248 -1.569314,0 -2.766523,0.307392 -3.640162,0.922175 -0.679497,0.485355 -1.035424,1.003067 -1.358994,1.957598 l 3.090093,0.501534 c 0.242678,-0.792747 0.792747,-1.132495 1.828171,-1.132495 1.067781,0 1.536957,0.355927 1.536957,1.132495 z m 0,2.523846 c 0,0.485355 -0.21032,0.922175 -0.582426,1.245745 -0.436819,0.372105 -1.164852,0.614782 -1.82817,0.614782 -0.841282,0 -1.326637,-0.339748 -1.326637,-0.922174 0,-0.469176 0.355927,-0.873639 0.938353,-1.067781 0.663318,-0.21032 1.358994,-0.291213 2.79888,-0.32357 z"
           style="font-family:'Hiragino Kaku Gothic StdN';-inkscape-font-specification:'Hiragino Kaku Gothic StdN'"
           id="path1092" />
        <path
           d="m 28.564739,-83.63662 c -0.09707,-0.841282 -0.129428,-1.520779 -0.129428,-2.442953 v -3.268057 c 0.695675,-1.132495 1.5046,-1.698742 2.410596,-1.698742 0.485355,0 0.85746,0.161785 1.067781,0.452998 0.194142,0.275034 0.258856,0.550069 0.258856,1.197209 v 3.316592 c 0,0.986888 -0.03236,1.666385 -0.129428,2.442953 h 3.365128 c -0.08089,-0.679497 -0.129428,-1.488422 -0.129428,-2.426774 v -4.060804 c 0,-1.278101 -0.275035,-2.070848 -0.922175,-2.717988 -0.598604,-0.598604 -1.488422,-0.905996 -2.604738,-0.905996 -1.326637,0 -2.313525,0.404463 -3.332771,1.375173 0,-0.11325 0.01618,-0.355927 0.01618,-0.452998 v -0.679497 H 25.21579 c 0.09707,0.64714 0.129428,1.326637 0.129428,2.442953 v 4.982978 c 0,1.003067 -0.03236,1.682564 -0.129428,2.442953 z"
           style="font-family:'Hiragino Kaku Gothic StdN';-inkscape-font-specification:'Hiragino Kaku Gothic StdN'"
           id="path1094" />
        <path
           d="m 42.241384,-87.697423 c 0.113249,0.744211 0.194142,1.116317 0.355927,1.504601 0.339748,0.922174 0.938353,1.617849 1.747278,2.070847 0.873639,0.501534 2.232633,0.792747 3.607805,0.792747 1.892884,0 3.316592,-0.469177 4.254945,-1.375173 0.744211,-0.728032 1.132495,-1.763456 1.132495,-2.976843 0,-1.488422 -0.582426,-2.572382 -1.747278,-3.300414 -0.614783,-0.388284 -1.391351,-0.663319 -2.620917,-0.922175 -1.909062,-0.388284 -1.909062,-0.388284 -2.232632,-0.53389 -0.517712,-0.242678 -0.76039,-0.582426 -0.76039,-1.035424 0,-0.744211 0.728033,-1.278102 1.714921,-1.278102 1.229566,0 1.811992,0.43682 2.006134,1.488422 l 3.429842,-0.372105 c -0.210321,-0.922175 -0.404463,-1.40753 -0.808925,-1.94142 -0.873639,-1.213387 -2.442954,-1.844349 -4.497623,-1.844349 -3.187164,0 -5.193298,1.569314 -5.193298,4.060803 0,1.310459 0.550069,2.394418 1.569314,3.106272 0.598605,0.420641 1.116317,0.614783 2.604739,0.938353 1.682564,0.388284 2.087026,0.501534 2.426774,0.663319 0.420641,0.194142 0.679497,0.630961 0.679497,1.132495 0,0.905996 -0.744211,1.456065 -1.989955,1.456065 -0.825103,0 -1.5046,-0.275035 -1.892884,-0.76039 -0.242678,-0.32357 -0.355927,-0.614783 -0.420641,-1.197209 z"
           style="font-family:'Hiragino Kaku Gothic StdN';-inkscape-font-specification:'Hiragino Kaku Gothic StdN'"
           id="path1096" />
        <path
           d="m 59.757389,-83.264514 c 3.219522,0 5.355084,-2.135562 5.355084,-5.355083 0,-3.203343 -2.070848,-5.258013 -5.338905,-5.258013 -3.268057,0 -5.338905,2.05467 -5.338905,5.29037 0,3.251878 2.070848,5.322726 5.322726,5.322726 z m 0.03236,-8.186321 c 1.375173,0 2.200276,1.067781 2.200276,2.879773 0,1.795814 -0.808925,2.847416 -2.216454,2.847416 -1.407529,0 -2.248811,-1.083959 -2.248811,-2.879773 0,-1.779635 0.841282,-2.847416 2.264989,-2.847416 z"
           style="font-family:'Hiragino Kaku Gothic StdN';-inkscape-font-specification:'Hiragino Kaku Gothic StdN'"
           id="path1098" />
        <path
           d="m 66.420406,-97.097131 c 0.09707,0.614783 0.129428,1.29428 0.129428,2.442953 v 8.574605 c 0,1.164852 -0.03236,1.714921 -0.129428,2.442953 h 3.381306 c -0.09707,-0.85746 -0.129428,-1.472243 -0.129428,-2.442953 v -8.574605 c 0,-1.100138 0.03236,-1.763456 0.129428,-2.442953 z"
           style="font-family:'Hiragino Kaku Gothic StdN';-inkscape-font-specification:'Hiragino Kaku Gothic StdN'"
           id="path1100" />
        <path
           d="m 79.063144,-83.63662 h 3.187165 c -0.09707,-0.792746 -0.129428,-1.456065 -0.129428,-2.540024 v -8.380463 c 0,-1.083959 0.03236,-1.860527 0.129428,-2.540024 h -3.316593 c 0.09707,0.711854 0.129428,1.407529 0.129428,2.540024 v 1.342816 c 0,0.226499 0,0.372105 0.01618,0.614783 -1.067781,-0.857461 -2.006134,-1.197209 -3.316592,-1.197209 -1.326637,0 -2.459132,0.436819 -3.284236,1.261923 -0.905996,0.922174 -1.391351,2.26499 -1.391351,3.947554 0,3.268056 1.779635,5.241833 4.724122,5.241833 1.358994,0 2.184097,-0.291213 3.268057,-1.164852 -0.01618,0.145607 -0.01618,0.258856 -0.01618,0.355927 z m -2.540024,-7.684787 c 1.472243,0 2.507667,1.132495 2.507667,2.70181 0,1.601671 -1.051602,2.79888 -2.491488,2.79888 -0.598605,0 -1.181031,-0.226499 -1.569315,-0.614783 -0.485355,-0.469176 -0.744211,-1.213387 -0.744211,-2.135562 0,-1.698742 0.889818,-2.750345 2.297347,-2.750345 z"
           style="font-family:'Hiragino Kaku Gothic StdN';-inkscape-font-specification:'Hiragino Kaku Gothic StdN'"
           id="path1102" />
        <path
           d="m 93.794172,-87.665066 c -0.01618,-0.161785 -0.01618,-0.258856 -0.01618,-0.32357 -0.04854,-0.922174 -0.11325,-1.601671 -0.242678,-2.119383 -0.566247,-2.410597 -2.329703,-3.785769 -4.853549,-3.785769 -3.090094,0 -5.144763,2.119383 -5.144763,5.322726 0,1.601672 0.517712,2.976844 1.472243,3.947554 0.922175,0.922174 2.167919,1.375172 3.753412,1.375172 1.601672,0 2.895952,-0.469176 3.818126,-1.375172 0.452998,-0.452998 0.695675,-0.825104 1.067781,-1.666385 l -2.815059,-0.792747 c -0.129428,0.420641 -0.242677,0.598605 -0.485355,0.825104 -0.420641,0.388284 -0.986888,0.598604 -1.634028,0.598604 -1.278102,0 -2.038491,-0.695675 -2.200276,-2.006134 z m -7.231789,-2.232633 c 0.275035,-1.067781 0.97071,-1.585493 2.119384,-1.585493 1.116316,0 1.811992,0.550069 2.038491,1.585493 z"
           style="font-family:'Hiragino Kaku Gothic StdN';-inkscape-font-specification:'Hiragino Kaku Gothic StdN'"
           id="path1104" />
        <path
           d="m 103.13726,-93.505504 c -0.76039,-0.161785 -1.08396,-0.194142 -1.60168,-0.194142 -1.47224,0 -2.442948,0.436819 -3.235695,1.472243 v -1.278101 h -3.219521 c 0.09707,0.695675 0.129428,1.261923 0.129428,2.442953 v 4.982978 c 0,1.051602 -0.03236,1.634028 -0.129428,2.442953 h 3.348949 c -0.09707,-0.776568 -0.129428,-1.391351 -0.129428,-2.426774 v -2.523846 c 0.06471,-0.711854 0.177964,-1.051603 0.485355,-1.439887 0.469177,-0.582426 1.100138,-0.873639 1.92524,-0.873639 0.50153,0 0.906,0.08089 1.65021,0.307392 z"
           style="font-family:'Hiragino Kaku Gothic StdN';-inkscape-font-specification:'Hiragino Kaku Gothic StdN'"
           id="path1106" />
      </g>
      <path
         style="fill:#ffcf13;fill-opacity:1;stroke:none;stroke-width:0.200304px;stroke-linecap:butt;stroke-linejoin:miter;stroke-opacity:1"
         d="m 76.655815,66.540513 -2.79005,10.30582 6.863991,0.15425 -0.685789,9.54513 7.530119,-14.50827 -7.8855,0.36143 z"
         id="path15771"
         sodipodi:nodetypes="ccccccc" />
      <path
         style="fill:#ffcf13;fill-opacity:1;stroke:none;stroke-width:0.17461px;stroke-linecap:butt;stroke-linejoin:miter;stroke-opacity:1"
         d="m 77.356258,47.410683 -2.432159,8.98386 5.983521,0.13446 -0.597821,8.32075 6.564202,-12.64725 -6.873997,0.31507 z"
         id="path15773"
         sodipodi:nodetypes="ccccccc" />
    </g>
  </g>
</svg>
